<mxfile host="app.diagrams.net" agent="Mozilla/5.0 (Windows NT 10.0; Win64; x64) AppleWebKit/537.36 (KHTML, like Gecko) Chrome/134.0.0.0 Safari/537.36" version="26.1.1">
  <diagram name="Page-1" id="esmmmN0RE_C18s7Nxb1y">
    <mxGraphModel dx="989" dy="509" grid="1" gridSize="10" guides="1" tooltips="1" connect="1" arrows="1" fold="1" page="1" pageScale="1" pageWidth="850" pageHeight="1100" math="0" shadow="0">
      <root>
        <mxCell id="0" />
        <mxCell id="1" parent="0" />
        <mxCell id="ETP2hcCOhIfnMw3_swS0-4" style="edgeStyle=orthogonalEdgeStyle;rounded=0;orthogonalLoop=1;jettySize=auto;html=1;exitX=1;exitY=0.5;exitDx=0;exitDy=0;entryX=0;entryY=0.5;entryDx=0;entryDy=0;startArrow=classic;startFill=1;" edge="1" parent="1" source="ETP2hcCOhIfnMw3_swS0-1" target="ETP2hcCOhIfnMw3_swS0-3">
          <mxGeometry relative="1" as="geometry" />
        </mxCell>
        <mxCell id="ETP2hcCOhIfnMw3_swS0-1" value="" style="rounded=0;whiteSpace=wrap;html=1;" vertex="1" parent="1">
          <mxGeometry x="70" y="60" width="120" height="270" as="geometry" />
        </mxCell>
        <mxCell id="ETP2hcCOhIfnMw3_swS0-2" value="" style="shape=image;verticalLabelPosition=bottom;labelBackgroundColor=default;verticalAlign=top;aspect=fixed;imageAspect=0;image=https://static-00.iconduck.com/assets.00/react-original-wordmark-icon-1679x2048-hjal07w8.png;" vertex="1" parent="1">
          <mxGeometry x="89" y="140" width="82" height="100" as="geometry" />
        </mxCell>
        <mxCell id="ETP2hcCOhIfnMw3_swS0-38" style="edgeStyle=orthogonalEdgeStyle;rounded=0;orthogonalLoop=1;jettySize=auto;html=1;exitX=1;exitY=0.5;exitDx=0;exitDy=0;entryX=0;entryY=0.5;entryDx=0;entryDy=0;startArrow=classic;startFill=1;" edge="1" parent="1" source="ETP2hcCOhIfnMw3_swS0-3" target="ETP2hcCOhIfnMw3_swS0-20">
          <mxGeometry relative="1" as="geometry" />
        </mxCell>
        <mxCell id="ETP2hcCOhIfnMw3_swS0-39" style="edgeStyle=orthogonalEdgeStyle;rounded=0;orthogonalLoop=1;jettySize=auto;html=1;exitX=1;exitY=0.5;exitDx=0;exitDy=0;entryX=0;entryY=0.5;entryDx=0;entryDy=0;startArrow=classic;startFill=1;" edge="1" parent="1" source="ETP2hcCOhIfnMw3_swS0-3" target="ETP2hcCOhIfnMw3_swS0-23">
          <mxGeometry relative="1" as="geometry" />
        </mxCell>
        <mxCell id="ETP2hcCOhIfnMw3_swS0-40" style="edgeStyle=orthogonalEdgeStyle;rounded=0;orthogonalLoop=1;jettySize=auto;html=1;exitX=1;exitY=0.5;exitDx=0;exitDy=0;entryX=0;entryY=0.5;entryDx=0;entryDy=0;startArrow=classic;startFill=1;" edge="1" parent="1" source="ETP2hcCOhIfnMw3_swS0-3" target="ETP2hcCOhIfnMw3_swS0-28">
          <mxGeometry relative="1" as="geometry" />
        </mxCell>
        <mxCell id="ETP2hcCOhIfnMw3_swS0-3" value="API Gateway" style="shape=image;verticalLabelPosition=bottom;labelBackgroundColor=default;verticalAlign=top;aspect=fixed;imageAspect=0;image=https://miro.medium.com/v2/resize:fit:1020/1*vi1keg-mSEHuQCMcPK_orw.png;" vertex="1" parent="1">
          <mxGeometry x="260" y="165" width="185.45" height="60" as="geometry" />
        </mxCell>
        <mxCell id="ETP2hcCOhIfnMw3_swS0-16" value="" style="endArrow=classic;startArrow=classic;html=1;rounded=0;exitX=1;exitY=0.25;exitDx=0;exitDy=0;entryX=0;entryY=0.5;entryDx=0;entryDy=0;edgeStyle=elbowEdgeStyle;" edge="1" parent="1" source="ETP2hcCOhIfnMw3_swS0-1" target="ETP2hcCOhIfnMw3_swS0-12">
          <mxGeometry width="50" height="50" relative="1" as="geometry">
            <mxPoint x="230" y="210" as="sourcePoint" />
            <mxPoint x="280" y="160" as="targetPoint" />
          </mxGeometry>
        </mxCell>
        <mxCell id="ETP2hcCOhIfnMw3_swS0-17" value="Authenticate" style="edgeLabel;html=1;align=center;verticalAlign=middle;resizable=0;points=[];" vertex="1" connectable="0" parent="ETP2hcCOhIfnMw3_swS0-16">
          <mxGeometry x="0.1288" y="-1" relative="1" as="geometry">
            <mxPoint as="offset" />
          </mxGeometry>
        </mxCell>
        <mxCell id="ETP2hcCOhIfnMw3_swS0-20" value="Click Persistence" style="rounded=0;whiteSpace=wrap;html=1;" vertex="1" parent="1">
          <mxGeometry x="530" y="90" width="120" height="60" as="geometry" />
        </mxCell>
        <mxCell id="ETP2hcCOhIfnMw3_swS0-21" value="" style="endArrow=classic;startArrow=classic;html=1;rounded=0;entryX=0.25;entryY=1;entryDx=0;entryDy=0;exitX=0.356;exitY=0.026;exitDx=0;exitDy=0;exitPerimeter=0;" edge="1" parent="1" source="ETP2hcCOhIfnMw3_swS0-3" target="ETP2hcCOhIfnMw3_swS0-12">
          <mxGeometry width="50" height="50" relative="1" as="geometry">
            <mxPoint x="290" y="350" as="sourcePoint" />
            <mxPoint x="340" y="300" as="targetPoint" />
          </mxGeometry>
        </mxCell>
        <mxCell id="ETP2hcCOhIfnMw3_swS0-22" value="Token Verification" style="edgeLabel;html=1;align=center;verticalAlign=middle;resizable=0;points=[];" vertex="1" connectable="0" parent="ETP2hcCOhIfnMw3_swS0-21">
          <mxGeometry x="0.0453" relative="1" as="geometry">
            <mxPoint as="offset" />
          </mxGeometry>
        </mxCell>
        <mxCell id="ETP2hcCOhIfnMw3_swS0-23" value="Realtime Click Tracking" style="rounded=0;whiteSpace=wrap;html=1;" vertex="1" parent="1">
          <mxGeometry x="530" y="190" width="120" height="60" as="geometry" />
        </mxCell>
        <mxCell id="ETP2hcCOhIfnMw3_swS0-24" value="Postgre" style="image;sketch=0;aspect=fixed;html=1;points=[];align=center;fontSize=12;image=img/lib/mscae/Azure_Database_for_PostgreSQL_servers.svg;" vertex="1" parent="1">
          <mxGeometry x="720" y="45" width="38" height="50" as="geometry" />
        </mxCell>
        <mxCell id="ETP2hcCOhIfnMw3_swS0-25" style="edgeStyle=orthogonalEdgeStyle;rounded=0;orthogonalLoop=1;jettySize=auto;html=1;exitX=1;exitY=0.5;exitDx=0;exitDy=0;entryX=0.034;entryY=0.502;entryDx=0;entryDy=0;entryPerimeter=0;" edge="1" parent="1" source="ETP2hcCOhIfnMw3_swS0-20" target="ETP2hcCOhIfnMw3_swS0-24">
          <mxGeometry relative="1" as="geometry" />
        </mxCell>
        <mxCell id="ETP2hcCOhIfnMw3_swS0-26" value="Redis" style="image;sketch=0;aspect=fixed;html=1;points=[];align=center;fontSize=12;image=img/lib/mscae/Cache_Redis_Product.svg;" vertex="1" parent="1">
          <mxGeometry x="720" y="123" width="50" height="42" as="geometry" />
        </mxCell>
        <mxCell id="ETP2hcCOhIfnMw3_swS0-27" style="edgeStyle=orthogonalEdgeStyle;rounded=0;orthogonalLoop=1;jettySize=auto;html=1;exitX=1;exitY=0.5;exitDx=0;exitDy=0;entryX=0.005;entryY=0.534;entryDx=0;entryDy=0;entryPerimeter=0;" edge="1" parent="1" source="ETP2hcCOhIfnMw3_swS0-20" target="ETP2hcCOhIfnMw3_swS0-26">
          <mxGeometry relative="1" as="geometry" />
        </mxCell>
        <mxCell id="ETP2hcCOhIfnMw3_swS0-28" value="Leaderboards" style="rounded=0;whiteSpace=wrap;html=1;" vertex="1" parent="1">
          <mxGeometry x="530" y="280" width="120" height="60" as="geometry" />
        </mxCell>
        <mxCell id="ETP2hcCOhIfnMw3_swS0-29" value="Redis" style="image;sketch=0;aspect=fixed;html=1;points=[];align=center;fontSize=12;image=img/lib/mscae/Cache_Redis_Product.svg;" vertex="1" parent="1">
          <mxGeometry x="724" y="199" width="50" height="42" as="geometry" />
        </mxCell>
        <mxCell id="ETP2hcCOhIfnMw3_swS0-31" value="Postgre" style="image;sketch=0;aspect=fixed;html=1;points=[];align=center;fontSize=12;image=img/lib/mscae/Azure_Database_for_PostgreSQL_servers.svg;" vertex="1" parent="1">
          <mxGeometry x="730" y="280" width="38" height="50" as="geometry" />
        </mxCell>
        <mxCell id="ETP2hcCOhIfnMw3_swS0-33" value="Redis" style="image;sketch=0;aspect=fixed;html=1;points=[];align=center;fontSize=12;image=img/lib/mscae/Cache_Redis_Product.svg;" vertex="1" parent="1">
          <mxGeometry x="730" y="358" width="50" height="42" as="geometry" />
        </mxCell>
        <mxCell id="ETP2hcCOhIfnMw3_swS0-35" style="edgeStyle=orthogonalEdgeStyle;rounded=0;orthogonalLoop=1;jettySize=auto;html=1;exitX=1;exitY=0.5;exitDx=0;exitDy=0;entryX=0.02;entryY=0.507;entryDx=0;entryDy=0;entryPerimeter=0;" edge="1" parent="1" source="ETP2hcCOhIfnMw3_swS0-23" target="ETP2hcCOhIfnMw3_swS0-29">
          <mxGeometry relative="1" as="geometry" />
        </mxCell>
        <mxCell id="ETP2hcCOhIfnMw3_swS0-36" style="edgeStyle=orthogonalEdgeStyle;rounded=0;orthogonalLoop=1;jettySize=auto;html=1;exitX=1;exitY=0.5;exitDx=0;exitDy=0;entryX=-0.011;entryY=0.589;entryDx=0;entryDy=0;entryPerimeter=0;" edge="1" parent="1" source="ETP2hcCOhIfnMw3_swS0-28" target="ETP2hcCOhIfnMw3_swS0-31">
          <mxGeometry relative="1" as="geometry" />
        </mxCell>
        <mxCell id="ETP2hcCOhIfnMw3_swS0-37" style="edgeStyle=orthogonalEdgeStyle;rounded=0;orthogonalLoop=1;jettySize=auto;html=1;exitX=1;exitY=0.5;exitDx=0;exitDy=0;entryX=-0.009;entryY=0.585;entryDx=0;entryDy=0;entryPerimeter=0;" edge="1" parent="1" source="ETP2hcCOhIfnMw3_swS0-28" target="ETP2hcCOhIfnMw3_swS0-33">
          <mxGeometry relative="1" as="geometry" />
        </mxCell>
        <mxCell id="ETP2hcCOhIfnMw3_swS0-12" value="" style="rounded=0;whiteSpace=wrap;html=1;" vertex="1" parent="1">
          <mxGeometry x="285.45" y="30" width="160" height="60" as="geometry" />
        </mxCell>
        <mxCell id="ETP2hcCOhIfnMw3_swS0-10" value="" style="shape=image;verticalLabelPosition=bottom;labelBackgroundColor=default;verticalAlign=top;aspect=fixed;imageAspect=0;image=https://raw.githubusercontent.com/konfig-sdks/openapi-examples/HEAD/clerk/backend/logo.png;" vertex="1" parent="1">
          <mxGeometry x="296.68" y="40" width="137.54" height="40" as="geometry" />
        </mxCell>
      </root>
    </mxGraphModel>
  </diagram>
</mxfile>
